<svg width="38" height="46" viewBox="0 0 38 46" fill="none" xmlns="http://www.w3.org/2000/svg">
<g clip-path="url(#clip0_356_871)">
<path d="M17.4166 7.6665H6.33329C5.49344 7.6665 4.68799 8.07037 4.09412 8.78926C3.50026 9.50815 3.16663 10.4832 3.16663 11.4998V38.3332C3.16663 39.3498 3.50026 40.3249 4.09412 41.0437C4.68799 41.7626 5.49344 42.1665 6.33329 42.1665H28.5C29.3398 42.1665 30.1453 41.7626 30.7391 41.0437C31.333 40.3249 31.6666 39.3498 31.6666 38.3332V24.9165" stroke="#4B9FF8" stroke-width="2" stroke-linecap="round" stroke-linejoin="round"/>
<path d="M29.2916 4.79145C29.9215 4.02895 30.7758 3.60059 31.6666 3.60059C32.5574 3.60059 33.4117 4.02895 34.0416 4.79145C34.6715 5.55395 35.0254 6.58812 35.0254 7.66645C35.0254 8.74478 34.6715 9.77895 34.0416 10.5414L19 28.7498L12.6666 30.6665L14.25 22.9998L29.2916 4.79145Z" stroke="#4B9FF8" stroke-width="2" stroke-linecap="round" stroke-linejoin="round"/>
<rect x="0.5" y="1.5" width="15" height="14" rx="4.5" fill="white" stroke="#F24822"/>
<path d="M8.31258 3.852C7.98458 4.028 7.63658 4.36 7.26858 4.848C6.90058 5.328 6.52858 5.944 6.15258 6.696C6.44058 6.752 6.70458 6.816 6.94458 6.888C7.19258 6.96 7.41658 7.036 7.61658 7.116L8.31258 3.852ZM9.24858 3C9.41658 3 9.58458 3.016 9.75258 3.048C9.92058 3.072 10.0686 3.112 10.1966 3.168L8.31258 12H6.58458L7.50858 7.644C7.22858 7.516 6.96458 7.42 6.71658 7.356C6.46858 7.284 6.19658 7.236 5.90058 7.212C5.44458 8.204 5.06858 9.212 4.77258 10.236C4.48458 11.26 4.34058 12.08 4.34058 12.696C4.34058 12.84 4.35258 12.964 4.37658 13.068C4.40858 13.18 4.45258 13.28 4.50858 13.368C3.90058 13.368 3.48058 13.264 3.24858 13.056C3.01658 12.848 2.90058 12.528 2.90058 12.096C2.90058 11.56 3.06058 10.844 3.38058 9.948C3.70858 9.052 4.13658 8.14 4.66458 7.212C4.25658 7.236 3.93658 7.3 3.70458 7.404C3.48058 7.508 3.33258 7.652 3.26058 7.836C3.29258 7.836 3.32458 7.88 3.35658 7.968C3.39658 8.048 3.41658 8.128 3.41658 8.208C3.41658 8.344 3.35258 8.456 3.22458 8.544C3.09658 8.632 2.93658 8.676 2.74458 8.676C2.52058 8.676 2.34058 8.616 2.20458 8.496C2.06858 8.368 2.00058 8.196 2.00058 7.98C2.00058 7.564 2.23258 7.216 2.69658 6.936C3.16858 6.648 3.75258 6.504 4.44858 6.504C4.52858 6.504 4.62058 6.508 4.72458 6.516C4.82858 6.516 4.94458 6.524 5.07258 6.54C5.77658 5.428 6.49258 4.56 7.22058 3.936C7.94858 3.312 8.62458 3 9.24858 3ZM12.8722 4.404C12.8722 4.668 12.7762 4.892 12.5842 5.076C12.4002 5.26 12.1762 5.352 11.9122 5.352C11.6482 5.352 11.4242 5.26 11.2402 5.076C11.0562 4.892 10.9642 4.668 10.9642 4.404C10.9642 4.14 11.0562 3.916 11.2402 3.732C11.4242 3.54 11.6482 3.444 11.9122 3.444C12.1762 3.444 12.4002 3.54 12.5842 3.732C12.7762 3.916 12.8722 4.14 12.8722 4.404ZM9.8122 10.632C9.8122 10.528 9.8202 10.412 9.8362 10.284C9.8522 10.148 9.8762 10.004 9.9082 9.852L10.7242 6H12.4522L11.5882 10.08C11.5722 10.152 11.5602 10.22 11.5522 10.284C11.5442 10.34 11.5402 10.4 11.5402 10.464C11.5402 10.624 11.5762 10.74 11.6482 10.812C11.7282 10.876 11.8562 10.908 12.0322 10.908C12.2562 10.908 12.4682 10.812 12.6682 10.62C12.8682 10.42 13.0162 10.164 13.1122 9.852H13.6162C13.3602 10.58 13.0162 11.132 12.5842 11.508C12.1522 11.884 11.6562 12.072 11.0962 12.072C10.6962 12.072 10.3802 11.948 10.1482 11.7C9.9242 11.444 9.8122 11.088 9.8122 10.632Z" fill="#F24822"/>
</g>
<defs>
<clipPath id="clip0_356_871">
<rect width="38" height="46" fill="white"/>
</clipPath>
</defs>
</svg>
