<svg width="44" height="42" viewBox="0 0 44 42" fill="none" xmlns="http://www.w3.org/2000/svg">
<path d="M25.6667 3.5H11C10.0276 3.5 9.09495 3.86875 8.40732 4.52513C7.71968 5.1815 7.33337 6.07174 7.33337 7V35C7.33337 35.9283 7.71968 36.8185 8.40732 37.4749C9.09495 38.1313 10.0276 38.5 11 38.5H33C33.9725 38.5 34.9051 38.1313 35.5928 37.4749C36.2804 36.8185 36.6667 35.9283 36.6667 35V14L25.6667 3.5Z" stroke="#4B9FF8" stroke-width="2" stroke-linecap="round" stroke-linejoin="round"/>
<path d="M25.6666 3.5V14H36.6666" stroke="#4B9FF8" stroke-width="2" stroke-linecap="round" stroke-linejoin="round"/>
<path d="M29.3333 22.75H14.6666" stroke="#4B9FF8" stroke-width="2" stroke-linecap="round" stroke-linejoin="round"/>
<path d="M29.3333 29.75H14.6666" stroke="#4B9FF8" stroke-width="2" stroke-linecap="round" stroke-linejoin="round"/>
<path d="M18.3333 15.75H16.5H14.6666" stroke="#4B9FF8" stroke-width="2" stroke-linecap="round" stroke-linejoin="round"/>
</svg>
